<svg xmlns="http://www.w3.org/2000/svg" width="25" height="32" fill="none" viewBox="0 0 25 32">
  <g clip-path="url(#a)">
    <path fill="#A3ABB3" fill-rule="evenodd" d="M11.492 18.805a5.625 5.625 0 1 0-6.234 0A8.984 8.984 0 0 0 .83 22.34a.75.75 0 1 0 1.256.82 7.5 7.5 0 0 1 12.576 0 .75.75 0 0 0 1.256-.82 8.985 8.985 0 0 0-4.427-3.535Zm-7.242-4.68a4.125 4.125 0 1 1 8.25 0 4.125 4.125 0 0 1-8.25 0Zm19.7 9.253a.75.75 0 0 1-1.037-.218 7.484 7.484 0 0 0-6.288-3.41.75.75 0 0 1 0-1.5 4.125 4.125 0 1 0-1.532-7.957.75.75 0 1 1-.557-1.392 5.625 5.625 0 0 1 5.206 9.904 8.985 8.985 0 0 1 4.427 3.535.75.75 0 0 1-.218 1.038Z" clip-rule="evenodd"/>
  </g>
  <defs>
    <clipPath id="a">
      <path fill="#fff" d="M.5 4h24v24H.5z"/>
    </clipPath>
  </defs>
</svg>
