<svg xmlns="http://www.w3.org/2000/svg" width="25" height="32" fill="none" viewBox="0 0 25 32">
  <g clip-path="url(#a)">
    <path fill="#A3ABB3" fill-rule="evenodd" d="M8.4 10a.75.75 0 0 1 .75-.75h12a.75.75 0 0 1 0 1.5h-12A.75.75 0 0 1 8.4 10Zm12.75 5.25h-12a.75.75 0 0 0 0 1.5h12a.75.75 0 0 0 0-1.5Zm0 6h-12a.75.75 0 0 0 0 1.5h12a.75.75 0 0 0 0-1.5ZM5.025 8.875a1.125 1.125 0 1 0 0 2.25 1.125 1.125 0 0 0 0-2.25Zm0 6a1.125 1.125 0 1 0 0 2.25 1.125 1.125 0 0 0 0-2.25Zm0 6a1.125 1.125 0 1 0 0 2.25 1.125 1.125 0 0 0 0-2.25Z" clip-rule="evenodd"/>
  </g>
  <defs>
    <clipPath id="a">
      <path fill="#fff" d="M.9 4h24v24H.9z"/>
    </clipPath>
  </defs>
</svg>
